<?xml version="1.0" encoding="UTF-8" standalone="no"?><!DOCTYPE svg PUBLIC "-//W3C//DTD SVG 1.1//EN" "http://www.w3.org/Graphics/SVG/1.1/DTD/svg11.dtd"><svg width="100%" height="100%" viewBox="0 0 301 301" version="1.1" xmlns="http://www.w3.org/2000/svg" xmlns:xlink="http://www.w3.org/1999/xlink" xml:space="preserve" xmlns:serif="http://www.serif.com/" style="fill-rule:evenodd;clip-rule:evenodd;stroke-linecap:round;stroke-linejoin:round;stroke-miterlimit:1.5;"><path d="M150.241,191.529l6.719,-0.012l0.007,10.81l-6.731,-0.007l0.004,-10.79Zm102.391,28.298l-61.59,-0.765l-16.822,-10.452l-22.321,13.284c-0.96,0.269 -1.852,-1.021 -1.519,-2.147l23.237,-13.641l6.123,0.771l-2.657,-50.098c-5.328,-2.245 -12.143,-2.817 -20.085,-3.454c-12.964,-0.096 -25.349,0.069 -34.293,3.448l-2.683,46.723l24.205,14.46c0.657,1.065 -0.038,2.446 -1.429,2.14l-26.616,-16.042l-21.318,13.975c-1.363,0.155 -2.156,-1.087 -1.366,-2.071l22.541,-14.641l1.564,0.827l5.733,-105.858c-2.656,-0.419 -5.177,-3 -5.058,-4.324c-0.186,-2.004 1.392,-3.894 4.638,-5.04l-0.03,-8.925c1.831,-1.963 6.131,-3.119 11.742,-3.611l0.009,-18.2c-0.995,-0.202 -2.182,-0.924 -2.441,-2.172c0.07,-1.099 1.987,-2.699 4.515,-2.996c1.966,-4.779 5.64,-7.989 10.922,-9.274l-0.019,-2.164c-1.195,-0.771 -1.881,-1.868 -1.967,-3.408c0.03,-1.014 0.75,-2.574 2.432,-3.768c0.287,-0.949 0.697,-2.257 1.492,-2.526c0.589,0.43 1.111,0.73 1.343,2.607c1.465,0.408 2.378,2.081 2.442,3.42c-0.006,1.786 -0.543,2.901 -1.92,3.757l-0.002,2.017c5.409,1.516 8.948,4.393 10.689,8.887c2.186,0.517 4.591,1.996 4.685,3.291c0.111,0.734 -0.869,1.705 -2.214,2.376l0.014,18.037c3.991,0.37 8.467,1.222 11.525,3.445l0.016,9.259c2.726,0.816 4.917,2.475 4.888,4.572c0.34,2.365 -3.707,4.869 -4.622,4.748l6.011,111.503l55.417,2.442l14.79,9.592Zm-81.275,-137.515l0,3.601c0.992,0.066 1.953,0.23 2.882,0.492l0,-3.357c-0.955,-0.433 -1.916,-0.676 -2.882,-0.735Zm-6.716,-1.432l0,3.829c1.763,0.061 3.522,0.317 5.286,0.74l0,-3.84l-5.286,-0.73Zm0.003,-4.781l-0.003,3.585c1.798,0.173 3.597,0.497 5.281,1.01l0.005,-3.638c-1.717,-0.489 -3.484,-0.788 -5.284,-0.957Zm-35.288,9.345l5.054,-0.733l0,-3.588c-1.462,-0.023 -3.158,0.233 -5.054,0.73l0,3.591Zm-4.318,-2.398l0,3.355c0.212,-0.163 1.228,-0.325 2.889,-0.488l0,-3.608c-1.09,0.102 -2.072,0.328 -2.889,0.74Zm46.322,-2.167c1.024,0.142 1.978,0.479 2.881,0.964l-0.002,-3.359c-0.907,-0.543 -1.876,-0.825 -2.88,-0.966l0.001,3.361Zm-46.313,0.95c0.867,-0.447 1.825,-0.765 2.866,-0.965l0.016,-3.345c-1.017,0.089 -1.984,0.397 -2.889,0.981l0.008,3.329Zm4.31,-4.788l0,3.358c1.671,-0.426 3.327,-0.7 5.054,-0.726c0,0 -0.006,-3.566 -0.009,-3.575c-0.072,-0.244 -5.121,0.693 -5.044,0.942Zm7.186,-23.488l0.009,20.661c8.565,-1.562 17.264,-1.621 26.162,-0.06l-0.007,-20.625c-5.571,-2.881 -19.75,-2.591 -26.164,0.024Zm1.216,10.568c1.077,-0.291 2.205,-0.45 3.367,-0.517l-0.005,8.378c-1.167,0.094 -2.284,0.265 -3.348,0.513l-0.015,-8.374Zm20.159,-0.517c1.121,0.085 2.241,0.237 3.362,0.487l0,8.404c-1.116,-0.219 -2.236,-0.381 -3.362,-0.476l0,-8.414Zm0.002,-9.842c1.128,0.193 2.248,0.428 3.355,0.726l0.005,8.417c-1.096,-0.221 -2.219,-0.384 -3.362,-0.505l0.002,-8.638Zm-15.603,9.597c2.352,-0.263 4.479,-0.311 6.485,-0.244l-0,8.4c-2.148,-0.043 -4.297,0.085 -6.466,0.269l-0.018,-8.425Zm7.926,-1.425l0.005,-8.88c2.184,0.061 4.353,0.197 6.477,0.468l-0.005,8.648c-2.057,-0.228 -4.368,-0.287 -6.477,-0.236Zm-12.473,-7.697l3.345,-0.475l0,8.861c-1.144,0.026 -2.256,0.207 -3.347,0.497l0.002,-8.883Zm12.473,8.876c2.222,-0.085 4.375,0.016 6.482,0.244l0,8.427c-2.151,-0.138 -4.314,-0.213 -6.482,-0.261l0,-8.411Zm-7.928,-9.594l6.495,-0.51l-0.011,8.921c-2.247,0.033 -4.427,0.159 -6.478,0.47l-0.006,-8.881Zm-18.07,73.735c7.628,-2.865 17.946,-3.698 27.583,-3.599c10.428,0.464 18.411,1.57 23.729,3.688l-1.751,-32.582c-5.749,-2.188 -12.402,-2.879 -19.187,-2.995c-10.682,-0.287 -20.748,0.33 -29.058,2.906l-1.316,32.583Zm26.484,-16.143l0.007,-10.311l6.233,-0.011l0.001,10.322l-6.241,-0.001Zm-0.486,20.891l0.002,9.601c-0.018,0.32 0.138,0.484 0.477,0.483l5.521,-0.005c0.304,0.044 0.544,-0.148 0.481,-0.478l0,-9.598c0.019,-0.375 -0.158,-0.516 -0.481,-0.484l-5.759,0.002c-0.225,0.076 -0.27,0.2 -0.24,0.479Zm1.683,0.958l3.12,0.008c0.151,-0.011 0.227,0.078 0.245,0.245l-0.007,7.426c-0.027,0.14 -0.106,0.223 -0.24,0.243l-3.359,0c-0.147,-0.039 -0.223,-0.122 -0.241,-0.241l0,-7.195c0.064,-0.271 0.207,-0.453 0.482,-0.485Zm-1.203,38.639l-0.001,-10.076l5.998,-0.007l0.004,10.086l-6.001,-0.004Z"/><path d="M174.258,211.28l15.327,8.963l0.011,24.522c-2.741,-0.654 -5.252,-0.656 -7.39,0.996c-1.189,-1.015 -2.81,-1.821 -5.134,-1.874c-2.417,0.128 -4.521,0.565 -6.324,1.701c-1.684,-1.269 -3.652,-2.177 -5.961,-2.264c-2.658,-0.093 -4.938,0.321 -6.83,1.515c-0.725,-0.504 -1.416,-0.997 -2.349,-1.072l0.094,-21.697l18.557,-10.791Zm-2.177,12.876l-0.001,14.41l10.084,0.002l-0.004,-14.404l-10.078,-0.008Zm1.683,1.451l6.969,-0.05l-0.025,11.561l-6.952,0.005l0.008,-11.516Z"/><ellipse cx="149.909" cy="150.593" rx="135.84" ry="139.887" style="fill:none;stroke:#000;stroke-width:6px;"/><path d="M64.805,242.639c-1.214,-2.277 -1.182,-4.464 1.213,-5.021c0.688,-0.16 1.726,-0.038 2.857,-0.023c0.094,-3.444 1.761,-4.533 6.249,-3.57c0.523,-3.829 2.569,-5.292 6.724,-3.866c2.995,-4.866 6.998,-4.112 10.272,0.25c4.411,-2.518 6.746,-0.186 8.313,3.832c5.682,-2.42 8.459,-0.593 8.76,4.806c5.493,-1.295 8.077,0.546 7.445,4.784c-4.257,-0.611 -7.662,-0.124 -10.083,1.444c-0.204,-0.02 -0.655,0.061 -0.726,-0.022c-2.444,-2.833 -13.898,-3.376 -18.809,-0.448c-4.295,-2.873 -9.914,-2.732 -15.383,-0.237c-1.534,-1.203 -3.87,-1.909 -6.833,-1.931Z"/><path d="M248.566,238.414l-7.124,7.383c-0.928,-0.308 -1.978,-0.473 -3.076,-0.583c-1.559,0.153 -3.018,0.827 -4.436,1.716c-1.663,-0.904 -4.152,-1.747 -7.512,-2.04c-3.164,0.111 -5.683,0.769 -7.998,1.878c-2.037,-1.059 -4.225,-1.651 -6.573,-1.749c-2.437,0.136 -4.698,0.663 -6.767,1.619c0,0 -3.238,-1.457 -5.44,-2.008c-2.202,-0.55 -6.962,1.295 -6.962,1.295l-0.097,-24.738l55.856,0.712l0.13,16.514Zm-30.409,-3.669l6.018,0l-0.024,-7.468l-5.994,-0.025l-0,7.493Zm14.62,0l6.029,0l0.007,-7.493l-6.044,0l0.008,7.493Zm-29.494,-7.702l-0.005,7.702l6.249,0l-0.013,-7.706l-6.231,0.004Z"/><path d="M153.119,243.841l0,-18.722l-11.999,0.015l-0.004,-4.092l-2.633,-1.438l0.004,23.982c2.517,-0.114 4.61,0.435 6.245,1.698l0.92,-0.003c2.096,-1.281 4.608,-1.736 7.467,-1.441Z"/><path d="M136.556,243.84l0.005,-25.433l-20.261,-12.013l-18.133,11.531l0.004,9.825c1.752,0.596 2.839,1.832 3.352,3.619c5.17,-1.743 8.456,0.42 9.604,5.266c6.028,-0.477 8.138,2.565 7.937,7.684c4.494,-1.579 8.543,-1.496 12.221,0.706l0.471,0.01c1.6,-0.987 3.2,-1.428 4.799,-1.196Z"/><path d="M94.59,209.531l-24.258,-15.784c-0.364,-0.219 -0.724,-0.208 -1.081,0.018l-22.45,15.046c0.017,1.531 0.506,1.941 1.688,1.672l21.243,-14.17l23.127,15.117c1.213,0.117 1.9,-0.413 1.732,-1.899Z"/><path d="M51.608,210.759l0.031,18.679c-0.09,0.231 -0.273,0.285 -0.5,0.256l-2.222,-2.208c-0.972,-0.079 -1.655,-0.095 -2.116,-0.022c-1.449,0.231 -2.192,1.625 -1.912,3.174l11.029,13.195l1.443,-0.001c1.433,-0.979 3.257,-1.25 5.262,-1.191c-1.328,-4.249 -0.164,-7.137 4.807,-6.963c0.071,-3.32 2.521,-4.316 6.467,-3.85c0.536,-3.43 2.996,-4.73 7.218,-4.077c1.927,-2.803 4.715,-3.516 8.166,-2.615l-0.114,-13.997l-19.225,-12.414l-18.333,12.035Z"/><path d="M235.994,251.636c-0.124,0.12 -0.32,0.121 -0.445,0.003c-0.365,-0.417 -0.497,-1.098 -0.568,-1.848c0.35,-1.716 2.148,-2.146 4.532,-1.838c0.046,0.006 0.084,0.038 0.099,0.081c0.015,0.044 0.003,0.092 -0.03,0.124c-0.649,0.63 -2.898,2.81 -3.587,3.477Zm-15.462,-0.349c-2.212,-2.445 0.13,-3.324 3.336,-3.749c1.635,-0.165 3.478,-0.26 5.074,-0.058c6.641,1.892 5.361,5.394 0.739,6.442c-0.837,0.089 -1.653,0.036 -2.388,-0.018c-2.572,-0.629 -4.854,-1.503 -6.761,-2.616Zm-4.419,4.402c0.512,-0.713 1.353,-1.471 2.758,-1.991c1.136,-0.163 2.036,0.044 2.649,0.214c2.319,0.418 4.28,1.193 5.97,2.167c1.574,1.064 0.698,2.39 -1.887,3.329c-2.084,0.029 -4.084,0.034 -5.998,0.015c-1.984,-0.397 -3.058,-1.209 -3.582,-2.664c-0.113,-0.38 -0.145,-0.746 0.091,-1.071Zm-9.157,-4.572c-1.565,-1.708 -0.711,-3.512 3.55,-3.752l3.005,0c5.475,1.027 5.993,4.206 1.542,6.604c-0.754,0.171 -1.536,0.222 -2.381,0l-5.716,-2.852Zm5.18,8.521l-7.625,0.02c-2.075,-0.759 -3.018,-2.23 -3.147,-4.465c0.199,-1.615 2.233,-3.204 5.026,-2.44c2.25,0.753 4.507,2.083 6.726,3.378c2.228,1.749 1.408,3.329 -0.98,3.508Zm-14.584,-0.203l-6.056,0c-2.639,-0.485 -3.797,-3.482 -2.109,-5.056c0.954,-0.876 1.699,-1.461 2.865,-1.824c0.684,-0.407 2.178,-0.485 2.953,-0.136c1.994,0.909 3.358,2.205 4.445,3.688c1.202,2.358 0.178,3.329 -2.098,3.329Zm2.972,-6.82c-0.237,0.188 -1.234,0.114 -1.431,-0.009c-0.381,-0.238 -4.394,-2.139 -4.211,-2.305c-1.791,-1.666 -0.175,-2.599 2.18,-3.371c1.201,-0.304 2.39,-0.285 3.566,0.055c4.816,1.419 4.998,3.696 -0.103,5.631Zm-16.187,6.861l-5.779,-0.059c-2.274,-1.161 -2.968,-3.874 -1.102,-5.037c1.127,-0.654 2.177,-1.069 3.382,-1.677l1.752,0.018c1.854,0.771 3.67,2.049 4.2,3.482c1.038,2.386 -0.464,3.252 -2.453,3.273Zm-12.284,0.197l-7.383,-0.036c-2.035,-0.125 -2.624,-1.381 -1.562,-2.433c1.73,-1.53 3.673,-2.825 5.816,-3.904c0.46,-0.234 1.303,-0.225 1.853,0.063c1.372,0.539 2.59,1.34 3.55,2.613c1.642,1.981 0.462,3.733 -2.273,3.696Zm14.684,-6.709c-1.255,-0.484 -2.286,-1.214 -3.129,-2.151c-0.677,-0.379 -0.963,-1.879 0.004,-3.124c0.404,-0.521 1.344,-0.907 2.161,-0.96c1.339,-0.099 2.632,-0.072 3.823,0.233c0.882,0.169 1.613,0.566 2.173,1.222c0.806,0.779 0.742,1.567 -0.004,2.362c-1.15,0.997 -2.367,1.749 -3.612,2.399c-0.465,0.087 -0.935,0.114 -1.416,0.019Zm-12.203,0.443c-0.883,-0.462 -1.822,-1.021 -2.56,-1.886c-0.831,-1.325 -0.821,-2.863 0.363,-4.043c2.688,-1.32 5.044,-1.636 7.497,-0.368c1.923,1.256 2.419,2.777 0.318,4.14c-1.384,0.538 -2.887,1.32 -4.255,2.164c-0.446,0.09 -0.901,0.081 -1.362,-0.006Zm-8.279,-1.488l-6.406,-2.778c-1.462,-1.027 -1.015,-2.188 1.275,-3.086c5.168,-1.743 10.966,2.377 7.81,5.348c-0.55,0.518 -1.584,0.68 -2.679,0.516Zm-2.599,0.466c1.189,0.356 1.495,1.533 0.492,2.211l-4.055,3.084c-0.881,0.445 -1.739,0.399 -2.581,-0.02l-2.991,-2.639c-1.007,-0.911 -0.93,-2.455 0.023,-2.823c0.756,-0.475 1.462,-1.06 2.294,-1.304c0.908,-0.444 2.295,-0.399 3.022,0.021c1.222,0.33 2.523,0.812 3.795,1.469Zm-10.328,7.273l-6.233,0c-2.243,0.224 -4.084,-2.701 -2.939,-4.636l1.983,-1.31c3.14,-1.178 5.844,0.619 8.417,3.317c1.152,1.211 0.706,2.078 -1.228,2.629Zm-1.266,-7.838c-1.834,0.257 -3.672,-0.169 -4.522,-1.24c-2.198,-2.59 -0.91,-4.174 2.454,-4.741c7.939,-0.787 7.577,2.994 6.02,3.693c0,0 -2.823,1.914 -3.952,2.288Zm-12.207,1.315l-5.795,-3.094c-2.477,-1.244 -2.881,-3.285 2.025,-4.309c2.491,-0.352 5.673,-0.191 6.928,0.773c2.884,2.308 3.284,4.613 1.027,6.497c-1.403,0.951 -2.843,0.954 -4.185,0.133Zm-13.713,-1.243c-0.556,0.207 -1.283,0.171 -1.889,0l-3.353,-2.075c-1.638,-1.099 -1.701,-2.861 0.274,-3.96c2.334,-0.81 4.714,-0.751 7.3,-0.126c2.835,1.291 2.731,3.085 0.831,4.451l-3.164,1.71Zm-13.614,0.917c-0.288,0.119 -0.582,0.168 -0.878,0.17c-0.425,0.003 -0.856,-0.092 -1.284,-0.218c-1.091,-0.512 -2.048,-1.192 -2.937,-1.956c-1.978,-3.724 2.339,-6.229 8.292,-5.075c3.502,0.969 2.979,3.453 1.143,4.642l-4.335,2.436Zm-15.023,0.171c-1.12,0.369 -2.372,0.34 -3.335,0l-5.504,-3.097c-1.904,-2.384 -0.344,-4.211 3.261,-4.628c2.777,-0.497 5.643,-0.291 8.381,0c5.415,0.887 7.074,3.998 2.774,5.841l-5.578,1.883Zm-18.032,-0.71c-0.946,0.411 -2.626,0.281 -2.816,0.073c-4.051,-1.567 -7.271,-7.75 2.468,-7.315c0,0 2.419,-0.048 3.047,0.068c4.427,0.82 5.201,3.198 2.048,4.811l-4.747,2.363Zm-21.644,-6.559c1.609,-0.748 4.898,-0.989 9.05,-0.705c5.332,0.913 6.803,6.503 0.501,7.207l-2.712,0.038c-2.338,-1.961 -4.904,-4.226 -6.84,-6.54Zm15.622,13.718l-6.356,-5.062c1.929,-1.252 4.154,-2.254 5.978,-1.828c4.735,1.111 5.411,6.271 2.54,6.88l-2.163,0.009Zm6.318,-5.515l4.514,-2.229c2.766,-1.424 6.912,0.769 9.066,3.031c1.876,1.97 2.055,3.774 -0.661,4.712l-11.285,0c-2.463,-0.942 -3.51,-3.005 -1.634,-5.515Zm18.477,0.523c3.221,-1.462 6.431,-2.496 8.706,-1.712c4.532,2.19 6.287,6.469 1.608,6.998l-9.872,-0.295c-3.034,-1.395 -3.036,-3.204 -0.443,-4.992Zm19.803,-2.804l2.331,-0.059c1.417,0.765 2.618,1.336 3.467,2.26c2.201,2.397 2.22,5.579 -0.914,5.889l-5.888,0c-3.282,-0.19 -4.947,-2.608 -4.014,-5.154l5.018,-2.936Zm9.114,1.916c1.956,-2.005 4.378,-2.98 6.316,-1.789l6.965,3.889c2.719,2.097 2.034,3.421 -0.63,3.992l-7.008,0.082c-5.026,0.245 -6.856,-2.626 -5.642,-6.175Z"/></svg>